{"glyphs":{"$":{"x_min":0,"x_max":649,"ha":649,"o":"m 249 0 q 78 0 78 171 l 78 225 l 171 269 l 176 269 l 176 171 q 176 88 249 88 l 296 88 l 296 356 l 269 356 q 122 356 122 503 l 122 591 q 122 737 269 737 l 296 737 l 296 830 l 348 854 l 353 854 l 353 737 l 381 737 q 527 737 527 591 l 527 565 l 435 521 l 430 521 l 430 591 q 430 649 381 649 l 353 649 l 353 444 l 400 444 q 571 444 571 273 l 571 171 q 571 0 400 0 l 353 0 l 353 -93 l 301 -117 l 296 -117 l 296 0 z m 296 444 l 296 649 l 269 649 q 220 649 220 591 l 220 503 q 220 444 269 444 z m 353 356 l 353 88 l 400 88 q 474 88 474 171 l 474 273 q 474 356 400 356 z"},"<":{"x_min":0,"x_max":653,"ha":653,"o":"m 73 324 l 73 329 l 113 414 l 516 585 l 556 500 l 556 496 l 222 360 l 556 225 l 556 220 l 516 136 z"},"'":{"x_min":0,"x_max":228,"ha":228,"o":"m 149 757 l 154 757 l 154 521 l 78 484 l 73 484 l 73 721 z"},"=":{"x_min":0,"x_max":593,"ha":593,"o":"m 73 413 l 73 418 l 113 502 l 520 502 l 520 497 l 480 413 z m 73 235 l 73 240 l 113 324 l 520 324 l 520 319 l 480 235 z"},"a":{"x_min":0,"x_max":518,"ha":518,"o":"m 195 88 l 298 88 q 347 88 347 146 l 347 213 q 347 272 298 272 l 195 272 q 146 272 146 213 l 146 146 q 146 88 195 88 z m 195 0 q 49 0 49 146 l 49 213 q 49 360 195 360 l 298 360 q 323 360 347 345 l 347 391 q 347 449 298 449 l 123 449 l 123 454 l 162 537 l 298 537 q 444 537 444 391 l 444 24 l 352 -20 l 347 -20 l 347 15 q 328 0 298 0 z"},"L":{"x_min":0,"x_max":532,"ha":532,"o":"m 98 0 l 98 713 l 190 757 l 195 757 l 195 89 l 530 89 l 530 84 l 490 0 z"},"3":{"x_min":0,"x_max":649,"ha":649,"o":"m 249 0 q 78 0 78 171 l 78 225 l 171 269 l 176 269 l 176 171 q 176 88 249 88 l 400 88 q 474 88 474 171 l 474 284 q 474 367 400 367 q 400 367 228 367 l 377 648 l 122 648 l 122 653 l 161 737 l 529 737 l 367 455 l 400 455 q 571 455 571 284 l 571 171 q 571 0 400 0 z"},"J":{"x_min":0,"x_max":620,"ha":620,"o":"m 210 0 q 39 0 39 171 l 39 225 l 132 269 l 137 269 l 137 171 q 137 88 210 88 l 352 88 q 425 88 425 171 l 425 648 l 145 648 l 145 653 l 185 737 l 522 737 l 522 171 q 522 0 352 0 z"},"V":{"x_min":0,"x_max":577,"ha":577,"o":"m 251 -20 l 2 717 l 87 757 l 92 757 l 294 144 l 485 757 l 490 757 l 574 717 l 341 21 l 256 -20 z"},"\"":{"x_min":0,"x_max":365,"ha":365,"o":"m 287 757 l 292 757 l 292 521 l 215 484 l 210 484 l 210 721 z m 149 757 l 154 757 l 154 521 l 78 484 l 73 484 l 73 721 z"},"7":{"x_min":0,"x_max":511,"ha":511,"o":"m 224 -20 l 219 -20 l 131 22 l 354 648 l 24 648 l 24 653 l 64 737 l 487 737 l 487 732 z"},"S":{"x_min":0,"x_max":649,"ha":649,"o":"m 249 0 q 78 0 78 171 l 78 225 l 171 269 l 176 269 l 176 171 q 176 88 249 88 l 400 88 q 474 88 474 171 l 474 273 q 474 356 400 356 l 269 356 q 122 356 122 503 l 122 591 q 122 737 269 737 l 381 737 q 527 737 527 591 l 527 565 l 435 521 l 430 521 l 430 591 q 430 649 381 649 l 269 649 q 220 649 220 591 l 220 503 q 220 444 269 444 l 400 444 q 571 444 571 273 l 571 171 q 571 0 400 0 z"},"}":{"x_min":0,"x_max":403,"ha":403,"o":"m 24 854 q 98 854 160 829 q 271 783 271 693 l 271 413 l 378 413 l 378 408 l 339 324 l 271 324 l 271 44 q 271 -45 160 -91 q 98 -117 24 -117 l 24 -29 q 73 -29 114 -13 q 173 10 173 44 l 173 693 q 173 727 114 750 q 73 767 24 767 z"},"Z":{"x_min":0,"x_max":619,"ha":619,"o":"m 73 0 l 73 5 l 389 648 l 78 648 l 78 653 l 118 737 l 541 737 l 541 732 l 223 89 l 545 89 l 545 84 l 506 0 z"},"x":{"x_min":0,"x_max":496,"ha":496,"o":"m 129 -20 l 124 -20 l 39 21 l 190 269 l 39 516 l 125 557 l 129 557 l 248 348 l 366 557 l 371 557 l 457 516 l 305 269 l 457 21 l 372 -20 l 367 -20 l 248 189 z"},")":{"x_min":0,"x_max":369,"ha":369,"o":"m 24 854 q 98 854 160 829 q 271 783 271 693 l 271 44 q 271 -45 160 -91 q 98 -117 24 -117 l 24 -29 q 73 -29 114 -13 q 173 10 173 44 l 173 693 q 173 727 114 750 q 73 767 24 767 z"},"&":{"x_min":0,"x_max":840,"ha":840,"o":"m 380 88 q 456 167 491 203 l 354 364 l 249 364 q 176 364 176 281 l 176 171 q 176 88 249 88 z m 419 0 l 249 0 q 78 0 78 171 l 78 281 q 78 384 150 425 q 122 457 122 511 l 122 591 q 122 737 269 737 l 381 737 q 527 737 527 591 l 527 555 l 435 511 l 430 511 l 430 591 q 430 649 381 649 l 269 649 q 220 649 220 591 l 220 511 q 220 452 269 452 l 399 452 l 549 273 l 672 438 l 677 438 l 761 397 l 605 204 l 762 21 l 677 -20 l 672 -20 l 540 139 z"},"_":{"x_min":0,"x_max":593,"ha":593,"o":"m 73 -200 l 73 -195 l 113 -111 l 520 -111 l 520 -116 l 480 -200 z"},"v":{"x_min":0,"x_max":501,"ha":501,"o":"m 213 -20 l 24 517 l 109 557 l 114 557 l 252 149 l 387 557 l 392 557 l 477 517 l 302 21 l 218 -20 z"},"O":{"x_min":0,"x_max":688,"ha":688,"o":"m 269 88 l 420 88 q 493 88 493 171 l 493 566 q 493 649 420 649 l 269 649 q 195 649 195 566 l 195 171 q 195 88 269 88 z m 269 0 q 98 0 98 171 l 98 566 q 98 737 269 737 l 420 737 q 591 737 591 566 l 591 171 q 591 0 420 0 z"},"(":{"x_min":0,"x_max":369,"ha":369,"o":"m 344 854 l 344 767 q 295 767 254 750 q 195 727 195 693 l 195 44 q 195 10 254 -13 q 295 -29 344 -29 l 344 -117 q 271 -117 208 -91 q 98 -45 98 44 l 98 693 q 98 783 208 829 q 271 854 344 854 z"},"C":{"x_min":0,"x_max":688,"ha":688,"o":"m 269 0 q 98 0 98 171 l 98 566 q 98 737 269 737 l 420 737 q 591 737 591 566 l 591 513 l 498 469 l 493 469 l 493 566 q 493 649 420 649 l 269 649 q 195 649 195 566 l 195 171 q 195 88 269 88 l 420 88 q 493 88 493 171 l 493 225 l 586 269 l 591 269 l 591 171 q 591 0 420 0 z"},"W":{"x_min":0,"x_max":1084,"ha":1084,"o":"m 269 0 q 98 0 98 171 l 98 713 l 190 757 l 195 757 l 195 171 q 195 88 269 88 l 420 88 q 493 88 493 171 l 493 713 l 586 757 l 591 757 l 591 171 q 591 88 664 88 l 815 88 q 889 88 889 171 l 889 713 l 981 757 l 986 757 l 986 171 q 986 0 815 0 l 664 0 q 576 0 542 47 q 503 0 420 0 z"},"A":{"x_min":0,"x_max":688,"ha":688,"o":"m 98 -20 l 98 566 q 98 737 269 737 l 420 737 q 591 737 591 566 l 591 24 l 498 -20 l 493 -20 l 493 324 l 195 324 l 195 24 l 103 -20 z m 195 413 l 493 413 l 493 566 q 493 649 420 649 l 269 649 q 195 649 195 566 z"},"f":{"x_min":0,"x_max":415,"ha":415,"o":"m 98 -20 l 98 399 l 24 399 l 24 404 l 64 488 l 98 488 l 98 591 q 98 737 244 737 l 366 737 l 366 732 l 327 649 l 244 649 q 195 649 195 591 l 195 488 l 357 488 l 357 483 l 317 399 l 195 399 l 195 24 l 103 -20 z"},"Q":{"x_min":0,"x_max":688,"ha":688,"o":"m 308 222 l 394 263 l 399 263 l 489 134 q 493 150 493 171 l 493 566 q 493 649 420 649 l 269 649 q 195 649 195 566 l 195 171 q 195 88 269 88 l 402 88 z m 269 0 q 98 0 98 171 l 98 566 q 98 737 269 737 l 420 737 q 591 737 591 566 l 591 171 q 591 88 551 45 l 568 21 l 482 -20 l 477 -20 l 461 3 q 442 0 420 0 z"},"w":{"x_min":0,"x_max":859,"ha":859,"o":"m 220 0 q 73 0 73 146 l 73 513 l 166 557 l 171 557 l 171 146 q 171 88 220 88 l 332 88 q 381 88 381 146 l 381 513 l 474 557 l 479 557 l 479 146 q 479 88 527 88 l 640 88 q 688 88 688 146 l 688 513 l 781 557 l 786 557 l 786 146 q 786 0 640 0 l 527 0 q 460 0 430 36 q 397 0 332 0 z"},"-":{"x_min":0,"x_max":593,"ha":593,"o":"m 73 324 l 73 329 l 113 413 l 520 413 l 520 408 l 480 324 z"},"E":{"x_min":0,"x_max":565,"ha":565,"o":"m 98 0 l 98 713 l 149 737 l 459 737 l 459 732 l 419 648 l 195 648 l 195 413 l 459 413 l 459 408 l 419 324 l 195 324 l 195 89 l 541 89 l 541 84 l 501 0 z"},"s":{"x_min":0,"x_max":522,"ha":522,"o":"m 205 0 q 59 0 59 146 l 59 164 l 151 208 l 156 208 l 156 146 q 156 88 205 88 l 317 88 q 366 88 366 146 l 366 185 q 366 244 317 244 l 226 244 q 79 244 79 391 q 79 537 226 537 l 283 537 q 429 537 429 419 l 336 375 l 332 375 l 332 391 q 332 449 283 449 l 226 449 q 177 449 177 391 q 177 332 226 332 l 317 332 q 464 332 464 185 l 464 146 q 464 0 317 0 z"},">":{"x_min":0,"x_max":653,"ha":653,"o":"m 580 396 l 580 392 l 540 307 l 138 136 l 98 220 l 98 225 l 432 360 l 98 496 l 98 500 l 138 585 z"},"l":{"x_min":0,"x_max":293,"ha":293,"o":"m 98 -20 l 98 713 l 190 757 l 195 757 l 195 24 l 103 -20 z"},"8":{"x_min":0,"x_max":649,"ha":649,"o":"m 249 0 q 78 0 78 171 l 78 281 q 78 384 150 425 q 122 457 122 511 l 122 591 q 122 737 269 737 l 381 737 q 527 737 527 591 l 527 511 q 527 457 499 425 q 571 384 571 281 l 571 171 q 571 0 400 0 z m 249 88 l 400 88 q 474 88 474 171 l 474 281 q 474 364 400 364 l 249 364 q 176 364 176 281 l 176 171 q 176 88 249 88 z m 269 452 l 381 452 q 430 452 430 511 l 430 591 q 430 649 381 649 l 269 649 q 220 649 220 591 l 220 511 q 220 452 269 452 z"},"\\":{"x_min":0,"x_max":476,"ha":476,"o":"m 396 -68 l 5 772 l 74 806 l 79 806 l 471 -35 l 401 -68 z"},"e":{"x_min":0,"x_max":552,"ha":552,"o":"m 220 0 q 73 0 73 146 l 73 391 q 73 537 220 537 l 332 537 q 479 537 479 391 l 479 365 l 172 128 q 179 88 220 88 l 332 88 q 381 88 381 146 l 381 172 l 474 216 l 479 216 l 479 146 q 479 0 332 0 z m 171 230 l 380 399 q 377 449 332 449 l 220 449 q 171 449 171 391 z"},"b":{"x_min":0,"x_max":576,"ha":576,"o":"m 244 88 l 356 88 q 405 88 405 146 l 405 391 q 405 449 356 449 l 244 449 q 195 449 195 391 l 195 146 q 195 88 244 88 z m 244 0 q 98 0 98 146 l 98 713 l 190 757 l 195 757 l 195 522 q 215 537 244 537 l 356 537 q 503 537 503 391 l 503 146 q 503 0 356 0 z"},"%":{"x_min":0,"x_max":1047,"ha":1047,"o":"m 715 88 l 827 88 q 876 88 876 146 l 876 225 q 876 283 827 283 l 715 283 q 666 283 666 225 l 666 146 q 666 88 715 88 z m 715 0 q 568 0 568 146 l 568 225 q 568 371 715 371 l 827 371 q 974 371 974 225 l 974 146 q 974 0 827 0 z m 220 454 l 332 454 q 381 454 381 513 l 381 591 q 381 649 332 649 l 220 649 q 171 649 171 591 l 171 513 q 171 454 220 454 z m 220 366 q 73 366 73 513 l 73 591 q 73 737 220 737 l 332 737 q 479 737 479 591 l 479 513 q 479 366 332 366 z m 385 -20 l 316 14 l 662 757 l 667 757 l 736 724 l 390 -20 z"},"m":{"x_min":0,"x_max":859,"ha":859,"o":"m 73 -20 l 73 391 q 73 537 220 537 l 332 537 q 399 537 430 501 q 462 537 527 537 l 640 537 q 786 537 786 391 l 786 24 l 693 -20 l 688 -20 l 688 391 q 688 449 640 449 l 527 449 q 479 449 479 391 l 479 24 l 386 -20 l 381 -20 l 381 391 q 381 449 332 449 l 220 449 q 171 449 171 391 l 171 24 l 78 -20 z"},"#":{"x_min":0,"x_max":668,"ha":668,"o":"m 224 108 l 219 108 l 219 254 l 73 254 l 73 259 l 113 343 l 219 343 l 219 396 l 73 396 l 73 400 l 113 484 l 219 484 l 219 590 l 303 630 l 308 630 l 308 484 l 360 484 l 360 590 l 444 630 l 449 630 l 449 484 l 595 484 l 595 479 l 555 396 l 449 396 l 449 343 l 595 343 l 595 338 l 555 254 l 449 254 l 449 148 l 365 108 l 360 108 l 360 254 l 308 254 l 308 148 z m 308 343 l 360 343 l 360 396 l 308 396 z"},",":{"x_min":0,"x_max":297,"ha":297,"o":"m 166 136 l 171 136 q 224 83 224 17 q 224 -77 104 -140 l 83 -115 q 139 -59 139 -10 q 139 49 73 92 z"},"n":{"x_min":0,"x_max":552,"ha":552,"o":"m 73 -20 l 73 391 q 73 537 220 537 l 332 537 q 479 537 479 391 l 479 24 l 386 -20 l 381 -20 l 381 391 q 381 449 332 449 l 220 449 q 171 449 171 391 l 171 24 l 78 -20 z"},"h":{"x_min":0,"x_max":576,"ha":576,"o":"m 98 -20 l 98 713 l 190 757 l 195 757 l 195 522 q 217 537 244 537 l 356 537 q 503 537 503 391 l 503 24 l 410 -20 l 405 -20 l 405 391 q 405 449 356 449 l 244 449 q 195 449 195 391 l 195 24 l 103 -20 z"},"z":{"x_min":0,"x_max":514,"ha":514,"o":"m 49 0 l 49 5 l 304 448 l 54 448 l 54 453 l 93 537 l 460 537 l 460 532 l 206 89 l 465 89 l 465 84 l 426 0 z"},"B":{"x_min":0,"x_max":669,"ha":669,"o":"m 98 0 l 98 713 l 149 737 l 391 737 q 537 737 537 591 l 537 511 q 537 457 509 425 q 581 384 581 281 l 581 171 q 581 0 410 0 z m 195 88 l 410 88 q 483 88 483 171 l 483 281 q 483 364 410 364 l 195 364 z m 195 452 l 391 452 q 439 452 439 511 l 439 591 q 439 649 391 649 l 195 649 z"},"K":{"x_min":0,"x_max":664,"ha":664,"o":"m 98 -20 l 98 255 l 98 713 l 190 757 l 195 757 l 195 416 q 207 420 219 422 l 460 757 l 465 757 l 551 716 l 333 426 l 405 426 q 576 426 576 255 l 576 24 l 483 -20 l 479 -20 l 479 255 q 479 338 405 338 l 269 338 q 195 338 195 255 l 195 24 l 103 -20 z"},"R":{"x_min":0,"x_max":666,"ha":666,"o":"m 195 649 l 195 337 l 410 337 q 483 337 483 420 l 483 566 q 483 649 410 649 z m 98 -20 l 98 713 l 149 737 l 410 737 q 581 737 581 566 l 581 420 q 581 261 433 250 l 593 21 l 507 -20 l 502 -20 l 314 249 l 195 249 l 195 24 l 103 -20 z"},"T":{"x_min":0,"x_max":521,"ha":521,"o":"m 211 -20 l 211 648 l 2 648 l 2 653 l 42 737 l 518 737 l 518 732 l 479 648 l 309 648 l 309 24 l 216 -20 z"},"P":{"x_min":0,"x_max":654,"ha":654,"o":"m 98 -20 l 98 713 l 149 737 l 410 737 q 581 737 581 566 l 581 420 q 581 249 410 249 l 195 249 l 195 24 l 103 -20 z m 195 649 l 195 337 l 410 337 q 483 337 483 420 l 483 566 q 483 649 410 649 z"},"|":{"x_min":0,"x_max":325,"ha":325,"o":"m 122 -117 l 122 818 l 198 854 l 203 854 l 203 -81 l 127 -117 z"},"t":{"x_min":0,"x_max":373,"ha":373,"o":"m 138 -20 l 138 448 l 12 448 l 12 453 l 52 537 l 138 537 l 138 713 l 230 757 l 235 757 l 235 537 l 361 537 l 361 532 l 321 448 l 235 448 l 235 24 l 143 -20 z"},"M":{"x_min":0,"x_max":1084,"ha":1084,"o":"m 98 -20 l 98 566 q 98 737 269 737 l 420 737 q 508 737 542 690 q 581 737 664 737 l 815 737 q 986 737 986 566 l 986 24 l 894 -20 l 889 -20 l 889 566 q 889 649 815 649 l 664 649 q 591 649 591 566 l 591 24 l 498 -20 l 493 -20 l 493 566 q 493 649 420 649 l 269 649 q 195 649 195 566 l 195 24 l 103 -20 z"},"g":{"x_min":0,"x_max":566,"ha":566,"o":"m 220 0 q 73 0 73 146 l 73 391 q 73 537 220 537 l 332 537 q 479 537 479 391 l 479 -54 q 479 -200 332 -200 l 124 -200 l 124 -195 l 163 -112 l 332 -112 q 381 -112 381 -54 l 381 15 q 360 0 332 0 z m 220 88 l 332 88 q 381 88 381 146 l 381 391 q 381 449 332 449 l 220 449 q 171 449 171 391 l 171 146 q 171 88 220 88 z"},"y":{"x_min":0,"x_max":576,"ha":576,"o":"m 220 0 q 73 0 73 146 l 73 513 l 166 557 l 171 557 l 171 146 q 171 88 220 88 l 332 88 q 381 88 381 146 l 381 513 l 474 557 l 479 557 l 479 -54 q 479 -200 332 -200 l 124 -200 l 124 -195 l 163 -112 l 332 -112 q 381 -112 381 -54 l 381 15 q 362 0 332 0 z"},"@":{"x_min":0,"x_max":669,"ha":669,"o":"m 385 0 q 239 0 239 146 l 239 183 q 239 329 385 329 l 435 329 q 461 329 483 324 l 483 391 q 483 449 435 449 l 259 449 q 186 449 186 366 l 186 -29 q 186 -112 259 -112 l 391 -112 l 391 -200 l 259 -200 q 88 -200 88 -29 l 88 366 q 88 537 259 537 l 435 537 q 581 537 581 391 l 581 24 l 488 -20 l 483 -20 l 483 5 q 461 0 435 0 z m 385 88 l 435 88 q 483 88 483 146 l 483 183 q 483 241 435 241 l 385 241 q 336 241 336 183 l 336 146 q 336 88 385 88 z"},"p":{"x_min":0,"x_max":576,"ha":576,"o":"m 244 0 q 211 0 195 15 l 195 -176 l 103 -220 l 98 -220 l 98 391 q 98 537 244 537 l 356 537 q 503 537 503 391 l 503 146 q 503 0 356 0 z m 244 88 l 356 88 q 405 88 405 146 l 405 391 q 405 449 356 449 l 244 449 q 195 449 195 391 l 195 146 q 195 88 244 88 z"},"X":{"x_min":0,"x_max":624,"ha":624,"o":"m 134 -20 l 49 21 l 255 369 l 49 716 l 134 757 l 139 757 l 312 455 l 485 757 l 490 757 l 575 716 l 369 369 l 575 21 l 490 -20 l 485 -20 l 312 282 l 139 -20 z"},"*":{"x_min":0,"x_max":578,"ha":578,"o":"m 333 757 l 333 601 l 425 664 l 502 611 l 504 607 l 368 534 l 504 460 l 502 457 l 425 403 l 333 466 l 333 350 l 249 311 l 244 311 l 244 466 l 152 403 l 76 457 l 73 460 l 209 534 l 73 607 l 76 611 l 152 664 l 244 601 l 244 717 l 328 757 z"},"Y":{"x_min":0,"x_max":640,"ha":640,"o":"m 271 -20 l 271 235 l 244 235 q 73 235 73 406 l 73 713 l 166 757 l 171 757 l 171 406 q 171 323 244 323 l 396 323 q 469 323 469 406 l 469 713 l 562 757 l 566 757 l 566 406 q 566 235 396 235 l 369 235 l 369 24 l 276 -20 z"},"c":{"x_min":0,"x_max":552,"ha":552,"o":"m 220 0 q 73 0 73 146 l 73 391 q 73 537 220 537 l 332 537 q 479 537 479 391 l 479 365 l 386 321 l 381 321 l 381 391 q 381 449 332 449 l 220 449 q 171 449 171 391 l 171 146 q 171 88 220 88 l 332 88 q 381 88 381 146 l 381 172 l 474 216 l 479 216 l 479 146 q 479 0 332 0 z"},"/":{"x_min":0,"x_max":476,"ha":476,"o":"m 74 -68 l 5 -35 l 396 806 l 401 806 l 471 772 l 79 -68 z"},"[":{"x_min":0,"x_max":422,"ha":422,"o":"m 98 -117 l 98 811 l 190 854 l 397 854 l 397 850 l 368 786 l 195 786 l 195 -49 l 397 -49 l 397 -54 l 368 -117 z"},"6":{"x_min":0,"x_max":688,"ha":688,"o":"m 269 88 l 420 88 q 493 88 493 171 l 493 297 q 493 380 420 380 l 269 380 q 195 380 195 297 l 195 171 q 195 88 269 88 z m 269 0 q 98 0 98 171 l 98 566 q 98 737 269 737 l 410 737 q 581 737 581 566 l 581 552 l 488 508 l 483 508 l 483 566 q 483 649 410 649 l 269 649 q 195 649 195 566 l 195 447 q 229 468 269 468 l 420 468 q 591 468 591 297 l 591 171 q 591 0 420 0 z"},"r":{"x_min":0,"x_max":352,"ha":352,"o":"m 73 -20 l 73 391 q 73 537 220 537 l 342 537 l 342 532 l 303 449 l 220 449 q 171 449 171 391 l 171 24 l 78 -20 z"},"2":{"x_min":0,"x_max":651,"ha":651,"o":"m 73 0 l 73 5 l 113 89 l 347 315 q 464 431 464 487 l 464 566 q 464 649 391 649 l 249 649 q 176 649 176 566 l 176 513 l 83 469 l 78 469 l 78 566 q 78 737 249 737 l 391 737 q 562 737 562 566 l 562 482 q 562 389 436 278 l 230 89 l 573 89 l 573 84 l 533 0 z"},"{":{"x_min":0,"x_max":403,"ha":403,"o":"m 378 854 l 378 767 q 330 767 289 750 q 229 727 229 693 l 229 44 q 229 10 289 -13 q 330 -29 378 -29 l 378 -117 q 305 -117 243 -91 q 132 -45 132 44 l 132 324 l 24 324 l 24 329 l 64 413 l 132 413 l 132 693 q 132 783 243 829 q 305 854 378 854 z"},"9":{"x_min":0,"x_max":688,"ha":688,"o":"m 269 357 l 420 357 q 493 357 493 440 l 493 566 q 493 649 420 649 l 269 649 q 195 649 195 566 l 195 440 q 195 357 269 357 z m 278 0 q 107 0 107 171 l 107 186 l 200 229 l 205 229 l 205 171 q 205 88 278 88 l 420 88 q 493 88 493 171 l 493 290 q 459 270 420 270 l 269 270 q 98 270 98 440 l 98 566 q 98 737 269 737 l 420 737 q 591 737 591 566 l 591 171 q 591 0 420 0 z"}," ":{"x_min":0,"x_max":391,"ha":391,"o":""},"I":{"x_min":0,"x_max":293,"ha":293,"o":"m 98 -20 l 98 713 l 190 757 l 195 757 l 195 24 l 103 -20 z"},"H":{"x_min":0,"x_max":679,"ha":679,"o":"m 98 -20 l 98 713 l 190 757 l 195 757 l 195 413 l 483 413 l 483 713 l 576 757 l 581 757 l 581 24 l 488 -20 l 483 -20 l 483 324 l 195 324 l 195 24 l 103 -20 z"},"4":{"x_min":0,"x_max":580,"ha":580,"o":"m 360 264 l 360 579 l 148 264 z m 360 -20 l 360 175 l 2 175 l 2 180 l 42 264 l 360 713 l 453 757 l 458 757 l 458 264 l 531 264 l 531 259 l 492 175 l 458 175 l 458 24 l 365 -20 z"},"~":{"x_min":0,"x_max":556,"ha":556,"o":"m 73 285 q 73 461 189 461 q 254 461 298 412 q 333 371 360 371 q 396 371 396 421 l 478 461 l 482 461 q 482 285 367 285 q 301 285 258 334 q 222 375 195 375 q 160 375 160 324 l 78 285 z"},"D":{"x_min":0,"x_max":679,"ha":679,"o":"m 195 88 l 410 88 q 483 88 483 171 l 483 566 q 483 649 410 649 l 195 649 z m 98 0 l 98 713 l 149 737 l 410 737 q 581 737 581 566 l 581 171 q 581 0 410 0 z"},"^":{"x_min":0,"x_max":645,"ha":645,"o":"m 73 531 l 258 717 l 342 757 l 347 757 l 572 531 l 487 491 l 482 491 l 322 648 l 163 491 l 158 491 z"},"0":{"x_min":0,"x_max":688,"ha":688,"o":"m 269 88 l 420 88 q 493 88 493 171 l 493 566 q 493 649 420 649 l 269 649 q 195 649 195 566 l 195 171 q 195 88 269 88 z m 269 0 q 98 0 98 171 l 98 566 q 98 737 269 737 l 420 737 q 591 737 591 566 l 591 171 q 591 0 420 0 z"},"F":{"x_min":0,"x_max":547,"ha":547,"o":"m 98 -20 l 98 713 l 149 737 l 459 737 l 459 732 l 419 648 l 195 648 l 195 413 l 459 413 l 459 408 l 419 324 l 195 324 l 195 24 l 103 -20 z"},"`":{"x_min":0,"x_max":316,"ha":316,"o":"m 159 757 l 164 757 l 243 588 l 186 562 l 181 562 l 73 716 z"},"k":{"x_min":0,"x_max":576,"ha":576,"o":"m 98 -20 l 98 713 l 190 757 l 195 757 l 195 361 q 202 363 209 364 l 399 557 l 404 557 l 490 516 l 327 366 l 356 366 q 503 366 503 220 l 503 24 l 410 -20 l 405 -20 l 405 220 q 405 278 356 278 l 244 278 q 195 278 195 220 l 195 24 l 103 -20 z"},"u":{"x_min":0,"x_max":552,"ha":552,"o":"m 220 0 q 73 0 73 146 l 73 513 l 166 557 l 171 557 l 171 146 q 171 88 220 88 l 332 88 q 381 88 381 146 l 381 513 l 474 557 l 479 557 l 479 146 q 479 0 332 0 z"},"]":{"x_min":0,"x_max":422,"ha":422,"o":"m 24 -117 l 24 -112 l 54 -49 l 227 -49 l 227 786 l 24 786 l 24 791 l 54 854 l 324 854 l 324 -73 l 231 -117 z"},"U":{"x_min":0,"x_max":688,"ha":688,"o":"m 269 0 q 98 0 98 171 l 98 713 l 190 757 l 195 757 l 195 171 q 195 88 269 88 l 420 88 q 493 88 493 171 l 493 713 l 586 757 l 591 757 l 591 171 q 591 0 420 0 z"},"o":{"x_min":0,"x_max":552,"ha":552,"o":"m 220 88 l 332 88 q 381 88 381 146 l 381 391 q 381 449 332 449 l 220 449 q 171 449 171 391 l 171 146 q 171 88 220 88 z m 220 0 q 73 0 73 146 l 73 391 q 73 537 220 537 l 332 537 q 479 537 479 391 l 479 146 q 479 0 332 0 z"},"N":{"x_min":0,"x_max":688,"ha":688,"o":"m 98 -20 l 98 566 q 98 737 269 737 l 420 737 q 591 737 591 566 l 591 24 l 498 -20 l 493 -20 l 493 566 q 493 649 420 649 l 269 649 q 195 649 195 566 l 195 24 l 103 -20 z"},"+":{"x_min":0,"x_max":593,"ha":593,"o":"m 341 592 l 341 413 l 520 413 l 520 408 l 480 324 l 341 324 l 341 185 l 257 146 l 252 146 l 252 324 l 73 324 l 73 329 l 113 413 l 252 413 l 252 552 l 336 592 z"},"G":{"x_min":0,"x_max":688,"ha":688,"o":"m 269 0 q 98 0 98 171 l 98 566 q 98 737 269 737 l 420 737 q 591 737 591 566 l 591 513 l 498 469 l 493 469 l 493 566 q 493 649 420 649 l 269 649 q 195 649 195 566 l 195 171 q 195 88 269 88 l 420 88 q 493 88 493 171 l 493 324 l 323 324 l 323 329 l 363 413 l 591 413 l 591 171 q 591 0 420 0 z"},"q":{"x_min":0,"x_max":576,"ha":576,"o":"m 220 88 l 332 88 q 381 88 381 146 l 381 391 q 381 449 332 449 l 220 449 q 171 449 171 391 l 171 146 q 171 88 220 88 z m 220 0 q 73 0 73 146 l 73 391 q 73 537 220 537 l 332 537 q 479 537 479 391 l 479 -176 l 386 -220 l 381 -220 l 381 15 q 361 0 332 0 z"},"d":{"x_min":0,"x_max":576,"ha":576,"o":"m 220 0 q 73 0 73 146 l 73 391 q 73 537 220 537 l 332 537 q 365 537 381 522 l 381 713 l 474 757 l 479 757 l 479 146 q 479 0 332 0 z m 220 88 l 332 88 q 381 88 381 146 l 381 391 q 381 449 332 449 l 220 449 q 171 449 171 391 l 171 146 q 171 88 220 88 z"},"1":{"x_min":0,"x_max":349,"ha":349,"o":"m 129 -20 l 129 621 l 10 556 l 10 656 l 222 757 l 227 757 l 227 24 l 134 -20 z"},"5":{"x_min":0,"x_max":649,"ha":649,"o":"m 249 0 q 78 0 78 171 l 78 225 l 171 269 l 176 269 l 176 171 q 176 88 249 88 l 400 88 q 474 88 474 171 l 474 284 q 474 367 400 367 l 216 367 l 114 417 l 195 737 l 534 737 l 534 732 l 494 648 l 270 648 l 220 455 l 400 455 q 571 455 571 284 l 571 171 q 571 0 400 0 z"}}}
